
<svg width="900" height="520" viewBox="0 0 900 520" xmlns="http://www.w3.org/2000/svg">
  <defs>
    <linearGradient id="body" x1="0" x2="0" y1="0" y2="1">
      <stop offset="0" stop-color="#ffffff"/>
      <stop offset="1" stop-color="#e6ecf2"/>
    </linearGradient>
    <linearGradient id="glass" x1="0" x2="1" y1="0" y2="0">
      <stop offset="0" stop-color="#c7d2fe" stop-opacity=".9"/>
      <stop offset="1" stop-color="#64748b" stop-opacity=".9"/>
    </linearGradient>
  </defs>
  <rect width="100%" height="100%" fill="#0f172a"/>
  <ellipse cx="460" cy="410" rx="320" ry="36" fill="#000" opacity=".35"/>
  <g transform="translate(80,120)">
    <path d="M60,180 h520 a40,40 0 0 0 40-40 v-40 a120,120 0 0 0 -120-120 h-200 a120,120 0 0 0 -90,40 l-60,70 a80,80 0 0 0 -20,50 v40 a40,40 0 0 0 40,40z"
          fill="url(#body)" stroke="#94a3b8" stroke-width="3"/>
    <path d="M240,20 h170 a90,90 0 0 1 90,90 v30 h-310 z" fill="url(#glass)" stroke="#94a3b8" stroke-width="3"/>
    <path d="M260,180 v-120" stroke="#94a3b8" stroke-width="2"/>
    <rect x="285" y="120" width="36" height="8" rx="4" fill="#94a3b8"/>
    <path d="M80,210 h520" stroke="#d4af37" stroke-width="4" opacity=".8"/>
    <path d="M90,230 h500" stroke="#1e3a8a" stroke-width="6" opacity=".6"/>
    <g transform="translate(120,210)">
      <circle cx="0" cy="0" r="54" fill="#111827" stroke="#64748b" stroke-width="6"/>
      <circle cx="0" cy="0" r="26" fill="#334155"/>
    </g>
    <g transform="translate(520,210)">
      <circle cx="0" cy="0" r="54" fill="#111827" stroke="#64748b" stroke-width="6"/>
      <circle cx="0" cy="0" r="26" fill="#334155"/>
    </g>
    <rect x="70" y="150" width="16" height="12" rx="2" fill="#fbbf24"/>
  </g>
</svg>
